<svg width="48" height="57" viewBox="0 0 48 57" fill="none" xmlns="http://www.w3.org/2000/svg">
<path d="M43.5 28.087C43.5 33.2587 41.4455 38.2186 37.7886 41.8756C34.1316 45.5325 29.1717 47.587 24 47.587C18.8283 47.587 13.8684 45.5325 10.2114 41.8756C6.55446 38.2186 4.5 33.2587 4.5 28.087C4.5 22.9153 6.55446 17.9554 10.2114 14.2984C13.8684 10.6414 18.8283 8.58698 24 8.58698C29.1717 8.58698 34.1316 10.6414 37.7886 14.2984C41.4455 17.9554 43.5 22.9153 43.5 28.087ZM0 28.087C0 34.4522 2.52856 40.5567 7.02944 45.0575C11.5303 49.5584 17.6348 52.087 24 52.087C30.3652 52.087 36.4697 49.5584 40.9706 45.0575C45.4714 40.5567 48 34.4522 48 28.087C48 21.7218 45.4714 15.6173 40.9706 11.1164C36.4697 6.61554 30.3652 4.08698 24 4.08698C17.6348 4.08698 11.5303 6.61554 7.02944 11.1164C2.52856 15.6173 0 21.7218 0 28.087ZM21.75 15.337V28.087C21.75 28.837 22.125 29.5401 22.7531 29.962L31.7531 35.962C32.7844 36.6557 34.1813 36.3745 34.875 35.3338C35.5687 34.2932 35.2875 32.9057 34.2469 32.212L26.25 26.887V15.337C26.25 14.0901 25.2469 13.087 24 13.087C22.7531 13.087 21.75 14.0901 21.75 15.337Z" fill="#C4C4C4"/>
</svg>
