<svg width="53" height="53" viewBox="0 0 53 53" fill="none" xmlns="http://www.w3.org/2000/svg">
<path d="M26.5115 13.3227C19.1826 13.3227 13.2711 19.2342 13.2711 26.5631C13.2711 33.892 19.1826 39.8035 26.5115 39.8035C33.8404 39.8035 39.752 33.892 39.752 26.5631C39.752 19.2342 33.8404 13.3227 26.5115 13.3227ZM26.5115 35.1711C21.7754 35.1711 17.9035 31.3107 17.9035 26.5631C17.9035 21.8154 21.7639 17.9551 26.5115 17.9551C31.2592 17.9551 35.1195 21.8154 35.1195 26.5631C35.1195 31.3107 31.2477 35.1711 26.5115 35.1711ZM43.3818 12.7811C43.3818 14.498 41.999 15.8693 40.2936 15.8693C38.5766 15.8693 37.2053 14.4865 37.2053 12.7811C37.2053 11.0756 38.5881 9.69277 40.2936 9.69277C41.999 9.69277 43.3818 11.0756 43.3818 12.7811ZM52.1512 15.9154C51.9553 11.7785 51.0103 8.11406 47.9797 5.09492C44.9605 2.07578 41.2961 1.13086 37.1592 0.923437C32.8955 0.681445 20.116 0.681445 15.8523 0.923437C11.727 1.11934 8.0625 2.06426 5.03183 5.0834C2.00117 8.10254 1.06777 11.767 0.86035 15.9039C0.618358 20.1676 0.618358 32.9471 0.86035 37.2107C1.05625 41.3477 2.00117 45.0121 5.03183 48.0312C8.0625 51.0504 11.7154 51.9953 15.8523 52.2027C20.116 52.4447 32.8955 52.4447 37.1592 52.2027C41.2961 52.0068 44.9605 51.0619 47.9797 48.0312C50.9988 45.0121 51.9438 41.3477 52.1512 37.2107C52.3932 32.9471 52.3932 20.1791 52.1512 15.9154ZM46.643 41.7855C45.7441 44.0441 44.0041 45.7842 41.734 46.6945C38.3346 48.0428 30.2682 47.7316 26.5115 47.7316C22.7549 47.7316 14.677 48.0312 11.2891 46.6945C9.03047 45.7957 7.29043 44.0557 6.38008 41.7855C5.03183 38.3861 5.34297 30.3197 5.34297 26.5631C5.34297 22.8064 5.04336 14.7285 6.38008 11.3406C7.2789 9.08203 9.01894 7.34199 11.2891 6.43164C14.6885 5.0834 22.7549 5.39453 26.5115 5.39453C30.2682 5.39453 38.3461 5.09492 41.734 6.43164C43.9926 7.33047 45.7326 9.07051 46.643 11.3406C47.9912 14.74 47.6801 22.8064 47.6801 26.5631C47.6801 30.3197 47.9912 38.3977 46.643 41.7855Z" fill="white"/>
</svg>
