<svg width="54" height="48" viewBox="0 0 54 48" fill="none" xmlns="http://www.w3.org/2000/svg">
<path d="M38.25 11.6914C38.25 16.8102 31.3969 25.9321 28.3875 29.6914C27.6656 30.5914 26.325 30.5914 25.6125 29.6914C22.6031 25.9321 15.75 16.8102 15.75 11.6914C15.75 5.47581 20.7844 0.441437 27 0.441437C33.2156 0.441437 38.25 5.47581 38.25 11.6914ZM39 19.2289C39.3281 18.5821 39.6281 17.9352 39.9 17.2977C39.9469 17.1852 39.9938 17.0633 40.0406 16.9508L50.9156 12.6008C52.3969 12.0102 54 13.0977 54 14.6914V40.0789C54 40.9977 53.4375 41.8227 52.5844 42.1696L39 47.5977V19.2289ZM12.9 13.4071C13.125 14.7289 13.575 16.0602 14.1 17.2977C14.3719 17.9352 14.6719 18.5821 15 19.2289V42.7977L3.08438 47.5696C1.60313 48.1602 0 47.0727 0 45.4789V20.0914C0 19.1727 0.5625 18.3477 1.41563 18.0008L12.9094 13.4071H12.9ZM30.7312 31.5664C32.0344 29.9352 34.0781 27.2821 36 24.3477V47.7196L18 42.5727V24.3477C19.9219 27.2821 21.9656 29.9352 23.2687 31.5664C25.1906 33.9664 28.8094 33.9664 30.7312 31.5664ZM27 14.6914C27.9946 14.6914 28.9484 14.2963 29.6516 13.5931C30.3549 12.8898 30.75 11.936 30.75 10.9414C30.75 9.94688 30.3549 8.99305 29.6516 8.28979C28.9484 7.58653 27.9946 7.19144 27 7.19144C26.0054 7.19144 25.0516 7.58653 24.3484 8.28979C23.6451 8.99305 23.25 9.94688 23.25 10.9414C23.25 11.936 23.6451 12.8898 24.3484 13.5931C25.0516 14.2963 26.0054 14.6914 27 14.6914Z" fill="#C3C3C3"/>
</svg>
