<svg width="59" height="60" viewBox="0 0 59 60" fill="none" xmlns="http://www.w3.org/2000/svg">
<path d="M40.5625 29.5747C40.5625 32.1329 40.4242 34.5989 40.1822 36.9497H18.8178C18.5643 34.5989 18.4375 32.1329 18.4375 29.5747C18.4375 27.0165 18.5758 24.5505 18.8178 22.1997H40.1822C40.4357 24.5505 40.5625 27.0165 40.5625 29.5747ZM43.8812 22.1997H58.0666C58.6773 24.562 59 27.028 59 29.5747C59 32.1214 58.6773 34.5874 58.0666 36.9497H43.8812C44.1232 34.5759 44.25 32.1099 44.25 29.5747C44.25 27.0396 44.1232 24.5735 43.8812 22.1997ZM56.8566 18.5122H43.4088C42.2564 11.1487 39.9748 4.98369 37.0363 1.04268C46.0592 3.42803 53.3996 9.97334 56.8451 18.5122H56.8566ZM39.6752 18.5122H19.3248C20.0277 14.3177 21.1109 10.6071 22.4361 7.59951C23.6461 4.87998 24.9943 2.90947 26.2965 1.66494C27.5871 0.443457 28.6588 0.074707 29.5 0.074707C30.3412 0.074707 31.4129 0.443457 32.7035 1.66494C34.0057 2.90947 35.3539 4.87998 36.5639 7.59951C37.9006 10.5956 38.9723 14.3062 39.6752 18.5122ZM15.5912 18.5122H2.14336C5.60039 9.97334 12.9293 3.42803 21.9637 1.04268C19.0252 4.98369 16.7436 11.1487 15.5912 18.5122ZM0.933398 22.1997H15.1187C14.8768 24.5735 14.75 27.0396 14.75 29.5747C14.75 32.1099 14.8768 34.5759 15.1187 36.9497H0.933398C0.322656 34.5874 0 32.1214 0 29.5747C0 27.028 0.322656 24.562 0.933398 22.1997ZM22.4361 51.5384C21.0994 48.5423 20.0277 44.8317 19.3248 40.6372H39.6752C38.9723 44.8317 37.8891 48.5423 36.5639 51.5384C35.3539 54.2579 34.0057 56.2284 32.7035 57.4729C31.4129 58.706 30.3412 59.0747 29.5 59.0747C28.6588 59.0747 27.5871 58.706 26.2965 57.4845C24.9943 56.2399 23.6461 54.2694 22.4361 51.5499V51.5384ZM15.5912 40.6372C16.7436 48.0007 19.0252 54.1657 21.9637 58.1067C12.9293 55.7214 5.60039 49.1761 2.14336 40.6372H15.5912ZM56.8566 40.6372C53.3996 49.1761 46.0707 55.7214 37.0479 58.1067C39.9863 54.1657 42.2564 48.0007 43.4203 40.6372H56.8566Z" fill="white"/>
</svg>
