<svg width="52" height="53" viewBox="0 0 52 53" fill="none" xmlns="http://www.w3.org/2000/svg">
<path d="M44.0803 8.26396C39.252 3.42412 32.8219 0.762207 25.9885 0.762207C11.8838 0.762207 0.406445 12.2396 0.406445 26.3442C0.406445 30.8499 1.58184 35.2519 3.81738 39.1353L0.1875 52.3872L13.7506 48.8265C17.4842 50.8661 21.6902 51.9378 25.977 51.9378H25.9885C40.0816 51.9378 51.8125 40.4604 51.8125 26.3558C51.8125 19.5224 48.9086 13.1038 44.0803 8.26396ZM25.9885 47.628C22.1627 47.628 18.4176 46.6024 15.1564 44.6665L14.3844 44.2056L6.34102 46.3144L8.48438 38.4669L7.97734 37.6603C5.84551 34.2724 4.72773 30.3659 4.72773 26.3442C4.72773 14.6249 14.2691 5.0835 26 5.0835C31.6811 5.0835 37.0164 7.296 41.0266 11.3177C45.0367 15.3394 47.5027 20.6747 47.4912 26.3558C47.4912 38.0866 37.7078 47.628 25.9885 47.628ZM37.6502 31.7026C37.0164 31.38 33.8705 29.8358 33.2828 29.6284C32.6951 29.4095 32.2688 29.3058 31.8424 29.9511C31.416 30.5964 30.1945 32.0253 29.8143 32.4632C29.4455 32.8896 29.0652 32.9472 28.4314 32.6245C24.6748 30.7462 22.2088 29.2712 19.7313 25.019C19.0744 23.8897 20.3881 23.9704 21.6096 21.5274C21.817 21.1011 21.7133 20.7323 21.552 20.4097C21.3906 20.087 20.1115 16.9411 19.5814 15.662C19.0629 14.4175 18.5328 14.5903 18.141 14.5673C17.7723 14.5442 17.3459 14.5442 16.9195 14.5442C16.4932 14.5442 15.8018 14.7056 15.2141 15.3394C14.6264 15.9847 12.9785 17.5288 12.9785 20.6747C12.9785 23.8206 15.2717 26.8628 15.5828 27.2892C15.9055 27.7155 20.0885 34.1687 26.507 36.9458C30.5633 38.6974 32.1535 38.8472 34.1816 38.5476C35.4146 38.3632 37.9613 37.0034 38.4914 35.5054C39.0215 34.0073 39.0215 32.7282 38.8602 32.4632C38.7104 32.1751 38.284 32.0138 37.6502 31.7026Z" fill="white"/>
</svg>
